PathFileType	4	(X/Y/Z)	TVC_12_BWA2_walk_RCNL2025.trc
DataRate	CameraRate	NumFrames	NumMarkers	Units	OrigDataRate	OrigDataStartFrame	OrigNumFrames
100	100	11	27	mm	100	166	440
Frame#	Time	R_Shoulder			L_Shoulder			C7			J_Notch			R_Elbow			L_Elbow			R_Wrist			L_Wrist			R_Asis			L_Asis			R_Psis			L_Psis			Sacral			Thoracic			Sternum			R_Thigh_Lateral			R_Knee_Lateral			R_Shank_Lateral			R_Ankle_Lateral			R_Heel			R_Toe			L_Thigh_Lateral			L_Knee_Lateral			L_Shank_Lateral			L_Ankle_Lateral			L_Heel			L_Toe		
		X1	Y1	Z1	X2	Y2	Z2	X3	Y3	Z3	X4	Y4	Z4	X5	Y5	Z5	X6	Y6	Z6	X7	Y7	Z7	X8	Y8	Z8	X9	Y9	Z9	X10	Y10	Z10	X11	Y11	Z11	X12	Y12	Z12	X13	Y13	Z13	X14	Y14	Z14	X15	Y15	Z15	X16	Y16	Z16	X17	Y17	Z17	X18	Y18	Z18	X19	Y19	Z19	X20	Y20	Z20	X21	Y21	Z21	X22	Y22	Z22	X23	Y23	Z23	X24	Y24	Z24	X25	Y25	Z25	X26	Y26	Z26	X27	Y27	Z27
166	1.65000000	201.179138	1349.876099	-25.565479	169.113617	1371.010498	-442.295868	84.492241	1431.610474	-220.384583	234.637695	1319.889771	-235.850021	85.205139	1031.449951	39.986713	7.161212	1067.561401	-500.482941	128.011223	788.605072	-7.720304	41.330153	830.977142	-446.253555	162.991058	924.357544	-72.911819	148.883636	935.794312	-420.238586	-20.619158	966.855652	-175.520325	-27.126534	964.260498	-283.765930	-23.872846	965.558075	-229.643127	-7.622805	1177.194092	-231.625275	315.347656	1127.485474	-258.441345	135.092545	608.519287	-71.172859	141.506348	479.728577	-135.770157	96.609978	260.094116	-114.040497	86.597008	56.882095	-195.727341	47.250923	59.684807	-253.772888	224.951813	45.644764	-209.960144	169.965210	636.448730	-494.353729	203.483002	484.170166	-427.205719	68.684906	338.367981	-456.951935	-50.995255	164.299561	-373.259216	-90.622673	174.071503	-315.971283	51.648136	66.438568	-361.091614
167	1.66000000	207.481110	1350.078491	-25.516768	174.587982	1370.963623	-442.188599	90.543640	1431.838623	-220.149673	240.485214	1319.853027	-235.857986	91.774353	1031.665649	40.640350	12.098985	1067.468994	-499.560974	135.693966	789.092590	-6.735087	46.893190	830.985626	-445.499069	168.402237	924.442505	-72.439072	154.107590	936.143677	-419.714691	-15.253651	967.331421	-174.834473	-21.882217	964.579285	-283.051422	-18.567934	965.955353	-228.942947	-1.976785	1177.543579	-230.977936	320.768860	1127.297974	-258.495361	137.447769	608.594299	-70.983521	142.813110	479.672821	-135.649231	96.984390	260.266022	-113.954559	86.614853	56.947300	-195.733246	47.180439	59.744297	-253.836655	224.852982	45.736073	-209.790237	178.219543	636.734985	-493.879486	215.661102	486.105804	-426.123993	84.477234	337.158234	-456.543793	-30.836090	159.560623	-373.791626	-71.145386	167.889160	-316.796570	75.369736	65.728325	-361.603943
168	1.67000000	213.763947	1350.286743	-25.497580	180.027939	1370.889893	-442.119232	96.573273	1432.050293	-219.948853	246.317535	1319.811768	-235.896637	98.307526	1031.894043	41.263336	16.926245	1067.373901	-498.645325	143.238869	789.559113	-5.850545	52.309594	830.982758	-444.747330	173.868729	924.517761	-72.042015	159.321640	936.461548	-419.213654	-9.879923	967.801270	-174.189148	-16.634127	964.893127	-282.381134	-13.257025	966.347198	-228.285141	3.668835	1177.869141	-230.360428	326.192535	1127.115356	-258.568695	139.600601	608.684631	-70.824707	143.960800	479.638580	-135.568268	97.291069	260.466187	-113.898918	86.678398	57.001015	-195.769302	47.153236	59.760635	-253.964661	224.726151	45.825142	-209.607086	186.893784	637.229126	-493.400909	227.412247	488.006866	-424.957733	100.294884	335.693665	-456.052307	-10.228031	154.493500	-374.184052	-51.212643	161.358841	-317.507568	99.422173	64.903938	-361.739075
169	1.68000000	220.033051	1350.493896	-25.508244	185.439346	1370.786377	-442.087158	102.584717	1432.239746	-219.781662	252.138977	1319.761353	-235.965408	104.809517	1032.129272	41.856571	21.657953	1067.271118	-497.739532	150.647270	789.998932	-5.066010	57.589222	830.964111	-443.997467	179.388260	924.580444	-71.713654	164.525223	936.736450	-418.740540	-4.494046	968.261047	-173.582886	-11.378265	965.195007	-281.753418	-7.936156	966.728027	-227.668152	9.318469	1178.165771	-229.774246	331.623688	1126.932617	-258.661591	141.587708	608.801880	-70.686806	144.948151	479.630096	-135.522644	97.535362	260.689392	-113.873756	86.777443	57.045956	-195.831192	47.171741	59.744774	-254.146255	224.574768	45.904858	-209.415024	195.908096	637.924683	-492.920166	238.702530	489.838989	-423.712219	116.117279	333.995056	-455.478119	10.819301	149.171249	-374.427032	-30.828413	154.546173	-318.090027	123.758347	63.995800	-361.507355
170	1.69000000	226.293564	1350.692017	-25.549572	190.828003	1370.650146	-442.091797	108.581436	1432.400513	-219.648102	257.953644	1319.695923	-236.064148	111.284515	1032.364624	42.420300	26.310486	1067.155518	-496.848053	157.921825	790.407288	-4.379126	62.742250	830.924988	-443.249771	184.956055	924.626953	-71.445679	169.717194	936.957581	-418.299713	0.907504	968.705566	-173.014526	-6.110858	965.476562	-281.166840	-2.601677	967.091064	-227.090683	14.975990	1178.427124	-229.221481	337.066772	1126.743408	-258.774689	143.442734	608.955322	-70.561630	145.775864	479.651794	-135.507065	97.721161	260.930695	-113.876732	86.896568	57.087650	-195.911499	47.233177	59.712997	-254.362747	224.407928	45.967464	-209.222672	205.132584	638.782227	-492.426849	249.499786	491.568787	-422.391022	131.918442	332.090271	-454.820068	32.295368	143.672089	-374.514099	-9.995875	147.519623	-318.531281	148.337723	63.032715	-360.925385
171	1.70000000	232.550186	1350.872803	-25.622789	196.199615	1370.478394	-442.132935	114.566742	1432.525635	-219.548630	263.765320	1319.609009	-236.193146	117.735916	1032.592896	42.954105	30.900963	1067.021851	-495.976257	165.066177	790.780121	-3.786231	67.779190	830.860626	-442.505432	190.565735	924.652771	-71.229355	174.896088	937.114868	-417.894897	6.327927	969.128113	-172.483398	-0.828241	965.728516	-280.620453	2.749843	967.428314	-226.551926	20.644749	1178.646851	-228.704819	342.525879	1126.541016	-258.908936	145.198868	609.150879	-70.442825	146.446930	479.707886	-135.515686	97.849854	261.186279	-113.902893	87.018845	57.133282	-196.001236	47.330742	59.684582	-254.590347	224.240417	46.003731	-209.043472	214.407791	639.733582	-491.901093	259.774872	493.164398	-420.995819	147.667694	330.012787	-454.075317	54.187290	138.078339	-374.441711	11.282920	140.350769	-318.820404	173.125229	62.041428	-360.018951
172	1.71000000	238.807129	1351.027100	-25.729481	201.559860	1370.268066	-442.210449	120.543716	1432.607544	-219.484131	269.577545	1319.493286	-236.353043	124.166275	1032.806641	43.456902	35.446613	1066.865112	-495.130463	172.084831	791.113373	-3.282844	72.710903	830.766357	-441.766663	196.210495	924.652893	-71.056343	180.060516	937.199036	-417.529419	11.770180	969.520752	-171.989380	4.473226	965.940552	-280.113708	8.121703	967.730652	-226.051544	26.327579	1178.817749	-228.227509	348.004761	1126.317383	-259.065308	146.890976	609.390259	-70.326210	146.967163	479.802094	-135.542236	97.919861	261.454193	-113.945068	87.128830	57.190552	-196.091095	47.455067	59.678719	-254.804138	224.091095	46.003113	-208.894333	223.571655	640.693237	-491.319794	269.503510	494.596252	-419.526642	163.330719	327.799469	-453.239777	76.478088	132.475128	-374.209839	33.007133	133.113998	-318.948883	198.090195	61.047604	-358.825684
173	1.72000000	245.067871	1351.145508	-25.871527	206.914322	1370.015503	-442.324707	126.515152	1432.638062	-219.456070	275.393494	1319.340942	-236.544907	130.577347	1032.997437	43.926952	39.964199	1066.680054	-494.317749	178.982979	791.402863	-2.864116	77.548613	830.637299	-441.036438	201.884201	924.622070	-70.919388	185.209457	937.201538	-417.206116	17.237059	969.874207	-171.533051	9.797233	966.101257	-279.646667	13.517146	967.987732	-225.589859	32.026829	1178.931885	-227.793381	353.506805	1126.064087	-259.244751	148.556335	609.670532	-70.210022	147.345566	479.937439	-135.580231	97.926674	261.734650	-113.994568	87.214569	57.266716	-196.172577	47.595856	59.711407	-254.982086	223.979767	45.955593	-208.792496	232.484268	641.575195	-490.663940	278.667938	495.837860	-417.982178	178.870819	325.489136	-452.308807	99.144730	126.948631	-373.821960	55.176186	125.885368	-318.911865	223.205704	60.078922	-357.396393
174	1.73000000	251.335098	1351.218140	-26.051062	212.268616	1369.717041	-442.476410	132.483505	1432.609009	-219.466431	281.216034	1319.143555	-236.770081	136.970123	1033.156616	44.361935	44.469547	1066.460938	-493.545837	185.766418	791.643890	-2.525134	82.303947	830.468628	-440.318634	207.582260	924.554932	-70.812851	190.342697	937.114319	-416.927582	22.731297	970.177917	-171.115738	15.147570	966.198792	-279.220032	18.939433	968.188354	-225.167885	37.744370	1178.981445	-227.406769	359.035095	1125.772461	-259.447876	150.234222	609.984192	-70.095276	147.594864	480.115692	-135.623215	97.863754	262.029938	-114.042091	87.268303	57.367813	-196.238739	47.743362	59.793247	-255.108459	223.922470	45.854733	-208.750824	241.041763	642.307495	-489.924408	287.258728	496.866455	-416.360229	194.249954	323.120605	-451.277832	122.155891	121.583939	-373.285309	77.786400	118.740753	-318.708374	248.447815	59.170650	-355.794189
175	1.74000000	257.610535	1351.234985	-26.270458	217.628311	1369.367554	-442.666656	138.450882	1432.511841	-219.517853	287.047607	1318.892456	-237.030273	143.344955	1033.274780	44.758957	48.977215	1066.201660	-492.822998	192.441437	791.830963	-2.261068	86.989067	830.255188	-439.617859	213.301971	924.446411	-70.732903	195.461197	936.929077	-416.696106	28.255650	970.420288	-170.739426	20.528168	966.220520	-278.834991	24.391909	968.320404	-224.787209	43.481640	1178.957886	-227.072479	364.592590	1125.433472	-259.675110	151.964325	610.320496	-69.985733	147.731857	480.337250	-135.664932	97.723923	262.344055	-114.078636	87.286407	57.498260	-196.284607	47.888813	59.928864	-255.175629	223.927628	45.700378	-208.773926	249.178024	642.838013	-489.105591	295.276031	497.663452	-414.658112	209.429779	320.731506	-450.143005	145.469757	116.462517	-372.610596	100.826515	111.753639	-318.341675	273.793884	58.371777	-354.090881
176	1.75000000	263.894836	1351.186035	-26.532291	222.998993	1368.961426	-442.897125	144.418930	1432.338257	-219.613556	292.890198	1318.578979	-237.327438	149.701630	1033.342407	45.114666	53.500324	1065.895874	-492.157562	199.014656	791.957642	-2.067194	91.616772	829.991638	-438.939407	219.042770	924.291992	-70.677452	200.567474	936.637573	-416.513550	33.813000	970.588501	-170.406769	25.943125	966.153503	-278.493286	29.878062	968.371002	-224.450027	49.239674	1178.852783	-226.795670	370.182007	1125.037842	-259.926514	153.783890	610.666870	-69.887489	147.777847	480.600830	-135.699600	97.501335	262.681976	-114.096306	87.268837	57.660751	-196.307419	48.024052	60.117836	-255.184265	223.993988	45.500359	-208.856033	256.856567	643.131042	-488.225037	302.730713	498.214813	-412.873169	224.372406	318.356812	-448.902039	169.031998	111.659332	-371.811981	124.273148	104.992538	-317.819977	299.218048	57.746376	-352.362152
